<svg xmlns="http://www.w3.org/2000/svg" viewBox="0 0 420 420">
  <g fill="#761d27" opacity=".14">
    <path d="M0 166c24-30 45-39 68-32 18 5 24 23 42 22 22-1 35-26 57-20 20 5 24 28 16 47-8 18-27 25-39 40-14 18-11 44-31 56-22 13-46 2-61-15-13-15-20-34-39-43-7-2-11-3-13-3z"/>
    <path d="M78 147c-15-34-8-66 9-90 5 28 14 51 28 70zm53 16c20-30 48-44 77-42-22 19-41 37-56 62zm18 50c35 3 61 21 75 45-28-8-53-12-78-9zm-54 42c1 37-12 67-34 84 2-29 1-54-6-79zm-57-52c-25 22-55 29-81 21 27-10 49-23 67-41z"/>
    <circle cx="213" cy="91" r="8"/><circle cx="248" cy="151" r="4"/><circle cx="193" cy="287" r="6"/>
    <circle cx="113" cy="354" r="4"/><circle cx="267" cy="231" r="3"/><circle cx="36" cy="318" r="7"/>
    <ellipse cx="288" cy="116" rx="3" ry="11" transform="rotate(41 288 116)"/>
  </g>
  <g fill="#761d27" opacity=".08">
    <circle cx="338" cy="75" r="2.5"/><circle cx="379" cy="192" r="3.5"/><circle cx="332" cy="384" r="2"/>
  </g>
</svg>
