<svg xmlns="http://www.w3.org/2000/svg" viewBox="0 0 480 480" role="img" aria-label="鲜血绽放飞溅纹理">
  <defs>
    <radialGradient id="blood-core" cx="45%" cy="42%" r="62%">
      <stop offset="0" stop-color="#ed2742"/>
      <stop offset=".48" stop-color="#c30e29"/>
      <stop offset="1" stop-color="#86101f"/>
    </radialGradient>
  </defs>
  <g fill="url(#blood-core)">
    <path d="M239 123c18 8 31 28 50 31 19 4 42-8 58 5 17 14 8 39 18 57 9 17 34 27 34 48 0 22-27 31-39 47-12 17-8 45-27 56-18 11-40-6-60-4-21 2-38 25-59 17-20-8-20-36-35-51-14-15-43-15-50-35-7-20 15-38 17-58 2-20-16-43-5-61 11-18 39-12 56-23 16-10 21-38 42-29z"/>
    <path d="M222 150 209 45l30 70 14-100 13 112 42-81-24 103 82-72-63 91 111-40-98 68 124-3-118 37 111 44-122-14 87 76-105-51 57 101-82-86 18 129-48-119-29 113 1-128-73 91 48-116-111 65 93-89-129 29 115-59-119-14 129-17-91-63 110 39-58-96 84 83-7-128 39 118z"/>
    <path d="M172 211c-22-9-46-5-64 10 23-2 43 2 60 14zm107 81c23 5 46-4 60-23-21 8-42 9-61 2zm-20-114c17-18 22-42 14-65-5 22-15 40-31 53z" opacity=".78"/>
  </g>
  <g fill="#c8102e">
    <circle cx="76" cy="103" r="10"/><circle cx="409" cy="99" r="7"/><circle cx="427" cy="310" r="12"/>
    <circle cx="93" cy="381" r="9"/><circle cx="347" cy="427" r="6"/><circle cx="49" cy="271" r="5"/>
    <circle cx="373" cy="56" r="4"/><circle cx="151" cy="64" r="6"/>
    <ellipse cx="53" cy="176" rx="5" ry="16" transform="rotate(-58 53 176)"/>
    <ellipse cx="399" cy="207" rx="5" ry="18" transform="rotate(68 399 207)"/>
    <ellipse cx="161" cy="421" rx="4" ry="14" transform="rotate(22 161 421)"/>
  </g>
  <g fill="#991127" opacity=".72">
    <circle cx="24" cy="136" r="3"/><circle cx="454" cy="169" r="4"/><circle cx="445" cy="389" r="3"/>
    <circle cx="57" cy="439" r="4"/><circle cx="299" cy="36" r="3"/><circle cx="116" cy="29" r="2.5"/>
    <circle cx="33" cy="337" r="2.5"/><circle cx="464" cy="253" r="2.5"/>
  </g>
</svg>
